<svg width="134" height="56" viewBox="0 0 134 56" fill="none" xmlns="http://www.w3.org/2000/svg">
<g clip-path="url(#clip0_4_244)">
<path d="M133.377 32.0187V48.8691C133.377 52.4822 130.353 55.4076 126.617 55.4076H109.202C105.467 55.4076 102.438 52.4775 102.438 48.8644V25.1504C102.438 20.5292 103.387 16.0069 105.18 11.8237C106.972 7.64058 109.606 3.79189 112.981 0.527344L120.437 7.7395C115.665 12.356 112.981 18.6213 112.981 25.1504V25.4802H126.617C130.353 25.4802 133.377 28.4056 133.377 32.0187Z" fill="black"/>
</g>
<g clip-path="url(#clip1_4_244)">
<path d="M84.1837 32.0187V48.8691C84.1837 52.4822 81.1594 55.4076 77.4241 55.4076H60.009C56.2738 55.4076 53.2446 52.4775 53.2446 48.8644V25.1504C53.2446 20.5292 54.1943 16.0069 55.9864 11.8237C57.7786 7.64058 60.4132 3.79189 63.7881 0.527344L71.2441 7.7395C66.4715 12.356 63.7881 18.6213 63.7881 25.1504V25.4802H77.4241C81.1594 25.4802 84.1837 28.4056 84.1837 32.0187Z" fill="black"/>
</g>
<defs>
<clipPath id="clip0_4_244">
<rect width="83.8806" height="54.8802" fill="white" transform="translate(49.4961 0.527344)"/>
</clipPath>
<clipPath id="clip1_4_244">
<rect width="83.8806" height="54.8802" fill="white" transform="translate(0.302979 0.527344)"/>
</clipPath>
</defs>
</svg>
